<svg xmlns="http://www.w3.org/2000/svg" fill="none" viewBox="0 0 189 63">
    <g fill="#3C115F" opacity=".8">
        <path d="M51.765 59.323v-9.79h1.057v1.13h.13c.08-.123.191-.28.334-.472.145-.195.352-.368.62-.52.273-.154.64-.231 1.104-.231.6 0 1.128.15 1.585.45.458.3.815.724 1.071 1.274.257.55.385 1.2.385 1.947 0 .754-.128 1.408-.385 1.961-.256.55-.612.977-1.066 1.28-.454.3-.978.45-1.572.45-.457 0-.823-.077-1.098-.228a2.039 2.039 0 0 1-.635-.524 7.012 7.012 0 0 1-.343-.491h-.093v3.764h-1.094Zm1.075-6.23c0 .537.08 1.012.237 1.423.158.408.388.727.69.96.303.228.674.342 1.113.342.458 0 .84-.12 1.145-.361.31-.244.541-.572.696-.983.157-.414.236-.875.236-1.381 0-.501-.077-.952-.232-1.354a2.092 2.092 0 0 0-.69-.96c-.306-.238-.691-.357-1.155-.357-.445 0-.819.113-1.122.339-.303.222-.531.534-.686.936-.154.399-.232.864-.232 1.395ZM62.482 56.801c-.643 0-1.207-.153-1.692-.459a3.118 3.118 0 0 1-1.131-1.284c-.27-.55-.404-1.193-.404-1.928 0-.742.135-1.39.404-1.943a3.112 3.112 0 0 1 1.13-1.288c.486-.306 1.05-.46 1.693-.46s1.205.154 1.687.46a3.07 3.07 0 0 1 1.131 1.288c.272.553.408 1.2.408 1.943 0 .735-.136 1.378-.408 1.928-.269.55-.646.978-1.13 1.284-.483.306-1.045.46-1.688.46Zm0-.983c.488 0 .89-.125 1.205-.375.315-.25.549-.58.7-.988a3.78 3.78 0 0 0 .227-1.325c0-.476-.076-.92-.227-1.33a2.242 2.242 0 0 0-.7-.997c-.315-.254-.717-.38-1.205-.38-.488 0-.89.126-1.205.38a2.243 2.243 0 0 0-.7.996 3.82 3.82 0 0 0-.227 1.33c0 .477.075.919.227 1.326.151.408.384.738.7.988.315.25.717.375 1.205.375ZM68.619 56.653l-2.17-7.12h1.15l1.539 5.45h.074l1.52-5.45h1.169l1.502 5.432h.074l1.539-5.433h1.15l-2.17 7.12h-1.075l-1.558-5.47h-.111l-1.558 5.47H68.62ZM80.224 56.801c-.686 0-1.278-.151-1.775-.454a3.05 3.05 0 0 1-1.145-1.28c-.266-.55-.399-1.19-.399-1.919 0-.73.133-1.372.399-1.928.269-.56.643-.995 1.122-1.307.482-.316 1.044-.473 1.687-.473.371 0 .737.061 1.099.185.361.124.69.325.987.603.297.275.533.64.71 1.094.175.454.264 1.013.264 1.678v.463h-5.489v-.945h4.376c0-.402-.08-.76-.241-1.076a1.816 1.816 0 0 0-.677-.746 1.896 1.896 0 0 0-1.029-.274c-.436 0-.813.109-1.131.325a2.135 2.135 0 0 0-.728.834c-.17.343-.255.711-.255 1.104v.63c0 .538.093.994.278 1.368.189.37.45.653.784.848.334.191.721.287 1.163.287.288 0 .547-.04.78-.12.234-.084.436-.207.606-.371.17-.167.302-.374.394-.621l1.057.296a2.344 2.344 0 0 1-.56.946c-.263.269-.588.48-.974.63-.386.149-.82.223-1.303.223ZM84.706 56.653v-7.12h1.057v1.075h.074a1.71 1.71 0 0 1 .705-.858c.34-.22.723-.329 1.15-.329.08 0 .18.002.3.005.121.003.213.007.274.014v1.112a3.22 3.22 0 0 0-.255-.041 2.502 2.502 0 0 0-.412-.033c-.346 0-.655.073-.927.218a1.598 1.598 0 0 0-.872 1.451v4.506h-1.094ZM92.201 56.801c-.686 0-1.278-.151-1.775-.454a3.048 3.048 0 0 1-1.145-1.28c-.266-.55-.399-1.19-.399-1.919 0-.73.133-1.372.399-1.928.269-.56.643-.995 1.122-1.307.482-.316 1.044-.473 1.687-.473.37 0 .737.061 1.099.185.361.124.69.325.987.603.297.275.533.64.71 1.094.175.454.264 1.013.264 1.678v.463H89.66v-.945h4.376c0-.402-.08-.76-.241-1.076a1.816 1.816 0 0 0-.677-.746 1.896 1.896 0 0 0-1.029-.274c-.436 0-.813.109-1.131.325a2.134 2.134 0 0 0-.728.834c-.17.343-.255.711-.255 1.104v.63c0 .538.093.994.278 1.368.189.37.45.653.784.848.334.191.721.287 1.163.287.288 0 .547-.04.78-.12.234-.084.436-.207.606-.371.17-.167.302-.374.394-.621l1.057.296a2.342 2.342 0 0 1-.56.946c-.263.269-.588.48-.974.63-.386.149-.82.223-1.303.223ZM99.372 56.801c-.594 0-1.117-.15-1.572-.45-.454-.302-.81-.729-1.066-1.279-.256-.553-.385-1.207-.385-1.96 0-.749.129-1.398.385-1.948.257-.55.614-.975 1.071-1.275.457-.3.986-.45 1.585-.45.464 0 .83.078 1.099.232.272.152.479.325.621.52.145.191.258.349.339.472h.092V47.16h1.094v9.494h-1.057v-1.094h-.129c-.081.13-.195.293-.343.491-.149.195-.36.37-.635.524-.276.151-.642.227-1.1.227Zm.148-.983c.439 0 .81-.114 1.113-.343.303-.232.533-.551.69-.96.158-.41.237-.885.237-1.422 0-.532-.077-.997-.232-1.396-.154-.402-.383-.714-.686-.936-.303-.226-.677-.339-1.122-.339-.463 0-.85.12-1.159.357a2.137 2.137 0 0 0-.69.96 3.816 3.816 0 0 0-.228 1.354c0 .506.078.967.232 1.381.158.411.39.739.696.983.309.24.692.361 1.15.361ZM108.35 56.653v-9.494h1.094v3.504h.092c.081-.123.192-.28.334-.472a1.95 1.95 0 0 1 .621-.52c.272-.154.64-.231 1.104-.231.599 0 1.128.15 1.585.45.457.3.814.724 1.071 1.274.256.55.384 1.2.384 1.947 0 .754-.128 1.408-.384 1.961-.257.55-.612.977-1.066 1.28-.455.3-.979.45-1.572.45-.457 0-.824-.077-1.099-.228a2.045 2.045 0 0 1-.635-.524 7.372 7.372 0 0 1-.343-.491h-.13v1.094h-1.056Zm1.075-3.56c0 .537.079 1.012.236 1.423.158.408.388.727.691.96.303.228.674.342 1.113.342.457 0 .839-.12 1.145-.361.309-.244.541-.572.695-.983.158-.414.236-.875.236-1.381 0-.501-.077-.952-.231-1.354a2.097 2.097 0 0 0-.691-.96c-.306-.238-.691-.357-1.154-.357-.445 0-.819.113-1.122.339-.303.222-.532.534-.686.936-.155.399-.232.864-.232 1.395ZM116.628 59.323c-.185 0-.351-.016-.496-.046a1.293 1.293 0 0 1-.301-.084l.278-.964c.266.068.5.093.704.074a.847.847 0 0 0 .543-.273c.161-.161.307-.422.44-.784l.204-.556-2.633-7.158h1.187l1.965 5.674h.075l1.965-5.674h1.187l-3.023 8.16a3.085 3.085 0 0 1-.505.912 1.893 1.893 0 0 1-.7.543 2.159 2.159 0 0 1-.89.176Z"/>
    </g>
    <path fill="#3C115F" d="M136.911 49.565c1.416 0 2.573 1.166 2.573 2.593s-1.157 2.593-2.573 2.593-2.573-1.166-2.573-2.593 1.157-2.593 2.573-2.593Zm0-2.582c-2.843 0-5.135 2.321-5.135 5.175 0 2.865 2.304 5.175 5.135 5.175 2.842 0 5.134-2.321 5.134-5.175 0-2.865-2.303-5.175-5.134-5.175ZM128.968 50.516l-2.416 5.47 2.73 1.223 1.202-2.73a3.005 3.005 0 0 0-1.516-3.963ZM127.462 46.541a3.021 3.021 0 0 0 1.517 3.975l1.213-2.752-2.73-1.223Z"/>
    <g fill="#3C115F" clip-path="url(#a)">
        <path d="M28.044 24.582a1.854 1.854 0 1 0-.594-3.66 1.854 1.854 0 0 0 .594 3.66Z"/>
        <path d="M36.277 17.982c-3.325-3.368-8.639-5.077-15.794-5.077l-1.816 1.816v7.5c-6.332 1.062-10.42 2.946-14.079 5.206V7.376c2.581-1.677 8.578-2.77 15.436-2.77h.038c6.733.004 12.707 1.104 15.081 2.725v3.096l3.633 3.633V6.59l-2.674-2.897C31.252 1.2 22.853.974 20.063.974h-.032c-2.866 0-11.493.23-16.5 2.827L.956 6.591v24.194l2.839 1.5c4.465-3.04 8.534-5.467 16.462-6.634l2.043-2.043v-7.03c5.213.244 9.04 1.572 11.392 3.955 2.798 2.835 3.183 6.859 3.21 10.04-4.75-.922-9.995-.97-15.014-.12-5.771.977-10.995 3.091-14.706 5.952C3.109 39.545.956 43.441.956 47.673c0 4.231 1.464 8.164 4.234 10.832 2.828 2.725 6.886 4.163 11.733 4.163 4.476 0 9.748-1.346 13.758-3.513 5.144-2.78 7.977-6.712 7.977-11.071 0-3.139-1.332-5.706-3.853-7.423-2.133-1.453-5.041-2.22-8.408-2.22-3.135 0-6.93.853-9.904 2.228-3.985 1.84-6.181 4.475-6.181 7.415 0 2.434 1.293 4.365 3.548 5.3 3.553 1.471 9.015.304 12.422-2.535v-4.628l-2.875-1.437v3.694c-2.4 1.678-6.026 2.432-8.158 1.55-.903-.375-1.306-.974-1.306-1.943 0-2.018 2.848-3.553 4.072-4.118 2.487-1.15 5.777-1.892 8.38-1.892 2.605 0 4.857.566 6.364 1.59 1.524 1.039 2.265 2.483 2.265 4.42 0 6.686-10.72 10.952-18.102 10.952S4.587 54.788 4.587 47.673c0-3.869 2.617-6.698 4.811-8.39 3.249-2.506 7.899-4.368 13.095-5.249 5.331-.904 10.924-.702 15.745.567l2.279-1.741c.001-.192.004-.39.007-.594.048-3.684.128-9.85-4.249-14.286l.002.002Z"/>
    </g>
    <path fill="#3C115F" d="M176.181 36.688v-9.85h1.596l.389 1.09h.098c.22-.298.571-.59 1.051-.876.493-.298 1.064-.447 1.713-.447.766 0 1.447.181 2.044.545.597.35 1.064.85 1.401 1.498.338.65.506 1.402.506 2.258v5.782h-2.121v-5.626c0-.727-.214-1.317-.643-1.771-.415-.467-.954-.701-1.615-.701-.675 0-1.227.234-1.655.7-.415.455-.623 1.045-.623 1.772v5.626h-2.141ZM174.671 31.549c0 .415-.039.765-.117 1.05h-7.299c.13.74.441 1.325.934 1.753.493.428 1.09.642 1.791.642.506 0 .934-.097 1.285-.292.35-.194.629-.441.837-.74h2.219c-.195.494-.5.967-.915 1.421a4.653 4.653 0 0 1-1.499 1.11 4.285 4.285 0 0 1-1.908.428 4.697 4.697 0 0 1-2.472-.681 5.053 5.053 0 0 1-1.771-1.85c-.428-.79-.642-1.667-.642-2.627 0-.947.22-1.81.661-2.589a5.014 5.014 0 0 1 1.772-1.869 4.53 4.53 0 0 1 2.433-.7c.869 0 1.661.22 2.375.661a4.628 4.628 0 0 1 1.693 1.772c.416.752.623 1.59.623 2.51Zm-4.691-3.017c-.675 0-1.265.227-1.771.68-.506.442-.824 1.033-.954 1.772h5.333c-.116-.727-.415-1.317-.895-1.771a2.407 2.407 0 0 0-1.713-.681ZM158.462 36.921c-.805 0-1.557-.22-2.258-.662-.688-.454-1.24-1.07-1.655-1.849-.415-.791-.623-1.674-.623-2.647 0-.973.208-1.85.623-2.628.415-.792.967-1.408 1.655-1.85a4.075 4.075 0 0 1 2.258-.68c.454 0 .876.077 1.265.233.402.143.733.318.993.526.259.194.434.363.525.506h.098v-4.808h2.141v13.626h-1.596l-.39-1.11h-.097c-.208.286-.577.584-1.109.895-.533.299-1.142.448-1.83.448Zm.233-1.985c.481 0 .922-.13 1.324-.39.402-.272.72-.648.954-1.129.246-.493.37-1.044.37-1.654 0-.61-.124-1.155-.37-1.635-.234-.493-.552-.87-.954-1.13a2.31 2.31 0 0 0-1.324-.408c-.48 0-.921.136-1.323.409-.403.26-.727.636-.974 1.129-.233.48-.35 1.025-.35 1.635 0 .61.117 1.161.35 1.654.247.48.571.857.974 1.13.402.259.843.389 1.323.389ZM152.981 31.549c0 .415-.039.765-.117 1.05h-7.299c.129.74.441 1.325.934 1.753.493.428 1.09.642 1.791.642.506 0 .934-.097 1.285-.292.35-.194.629-.441.837-.74h2.219c-.195.494-.5.967-.915 1.421a4.664 4.664 0 0 1-1.499 1.11 4.285 4.285 0 0 1-1.908.428 4.697 4.697 0 0 1-2.472-.681 5.045 5.045 0 0 1-1.771-1.85c-.428-.79-.643-1.667-.643-2.627 0-.947.221-1.81.662-2.589a5.006 5.006 0 0 1 1.772-1.869 4.527 4.527 0 0 1 2.433-.7c.869 0 1.661.22 2.375.661a4.635 4.635 0 0 1 1.693 1.772c.415.752.623 1.59.623 2.51Zm-4.691-3.017c-.675 0-1.265.227-1.772.68-.506.442-.824 1.033-.953 1.772h5.333c-.117-.727-.415-1.317-.895-1.771a2.407 2.407 0 0 0-1.713-.681ZM133.183 36.688V23.062h2.141v4.866h.098c.207-.298.558-.59 1.051-.876.493-.298 1.057-.447 1.693-.447.727 0 1.376.181 1.947.545a3.55 3.55 0 0 1 1.362 1.498c.338.65.506 1.402.506 2.258v5.782h-2.121v-5.626c0-.727-.214-1.317-.643-1.771-.415-.467-.953-.701-1.615-.701-.675 0-1.227.234-1.655.7-.415.455-.623 1.045-.623 1.772v5.626h-2.141ZM126.689 36.688v-9.85h1.596l.389 1.09h.098c.207-.298.525-.59.953-.876a2.527 2.527 0 0 1 1.48-.447c.324 0 .597.026.817.077v2.142a4.296 4.296 0 0 0-.876-.078c-.687 0-1.245.22-1.674.662-.428.44-.642 1.05-.642 1.83v5.45h-2.141ZM125.179 31.549c0 .415-.039.765-.117 1.05h-7.299c.129.74.441 1.325.934 1.753.493.428 1.09.642 1.791.642.506 0 .934-.097 1.284-.292.351-.194.63-.441.837-.74h2.219a4.63 4.63 0 0 1-.914 1.421 4.664 4.664 0 0 1-1.499 1.11 4.285 4.285 0 0 1-1.908.428 4.697 4.697 0 0 1-2.472-.681 5.045 5.045 0 0 1-1.771-1.85c-.429-.79-.643-1.667-.643-2.627 0-.947.221-1.81.662-2.589a5.006 5.006 0 0 1 1.772-1.869 4.527 4.527 0 0 1 2.433-.7c.869 0 1.661.22 2.374.661a4.63 4.63 0 0 1 1.694 1.772c.415.752.623 1.59.623 2.51Zm-4.691-3.017a2.57 2.57 0 0 0-1.772.68c-.506.442-.824 1.033-.953 1.772h5.333c-.117-.727-.415-1.317-.895-1.771a2.409 2.409 0 0 0-1.713-.681ZM110.674 34.099l2.628-7.26h2.18l-3.815 9.849h-2.064l-3.815-9.85h2.258l2.628 7.26ZM98.838 36.921a6.129 6.129 0 0 1-3.27-.934c-1-.623-1.797-1.473-2.394-2.55-.597-1.077-.896-2.265-.896-3.562 0-1.298.299-2.485.896-3.562.597-1.078 1.395-1.927 2.394-2.55a6.129 6.129 0 0 1 3.27-.935 6.03 6.03 0 0 1 3.251.935 6.812 6.812 0 0 1 2.414 2.55c.596 1.077.895 2.264.895 3.562 0 1.297-.299 2.485-.895 3.562a6.812 6.812 0 0 1-2.414 2.55 6.03 6.03 0 0 1-3.25.934Zm0-2.16c.766 0 1.473-.208 2.122-.623a4.588 4.588 0 0 0 1.577-1.752c.402-.74.603-1.577.603-2.511 0-.935-.201-1.772-.603-2.511-.39-.74-.915-1.317-1.577-1.733a3.776 3.776 0 0 0-2.122-.642c-.765 0-1.48.214-2.141.642-.649.416-1.175.993-1.577 1.733-.39.74-.584 1.576-.584 2.51 0 .935.195 1.772.584 2.512.402.74.928 1.323 1.577 1.752a3.956 3.956 0 0 0 2.141.623ZM82.576 36.688v-9.85h1.596l.39 1.09h.097c.207-.298.525-.59.954-.876a2.524 2.524 0 0 1 1.48-.447c.323 0 .596.026.817.077v2.142a4.302 4.302 0 0 0-.876-.078c-.688 0-1.246.22-1.674.662-.429.44-.643 1.05-.643 1.83v5.45h-2.14ZM76.147 36.921c-.882 0-1.7-.227-2.452-.681a5.164 5.164 0 0 1-1.772-1.888 5.228 5.228 0 0 1-.662-2.59c0-.946.221-1.81.662-2.588a5.008 5.008 0 0 1 1.772-1.869c.752-.467 1.57-.7 2.452-.7.883 0 1.694.233 2.433.7a4.957 4.957 0 0 1 1.791 1.869c.442.779.662 1.642.662 2.589 0 .934-.22 1.797-.662 2.589a5.109 5.109 0 0 1-1.79 1.888c-.74.454-1.551.681-2.434.681Zm0-1.985c.506 0 .967-.136 1.382-.409a2.85 2.85 0 0 0 1.013-1.129c.246-.48.37-1.025.37-1.635 0-.61-.124-1.155-.37-1.635a2.85 2.85 0 0 0-1.013-1.13 2.466 2.466 0 0 0-1.382-.408 2.56 2.56 0 0 0-1.401.409 2.904 2.904 0 0 0-.993 1.129c-.246.48-.37 1.025-.37 1.635 0 .61.124 1.155.37 1.635.247.48.578.856.993 1.129a2.56 2.56 0 0 0 1.401.409ZM65.397 36.921c-.882 0-1.7-.227-2.452-.681a5.164 5.164 0 0 1-1.772-1.888 5.228 5.228 0 0 1-.662-2.59c0-.946.221-1.81.662-2.588a5.008 5.008 0 0 1 1.772-1.869c.752-.467 1.57-.7 2.452-.7.883 0 1.694.233 2.433.7a4.957 4.957 0 0 1 1.791 1.869c.442.779.662 1.642.662 2.589 0 .934-.22 1.797-.662 2.589a5.109 5.109 0 0 1-1.79 1.888c-.74.454-1.551.681-2.434.681Zm0-1.985c.506 0 .967-.136 1.382-.409a2.85 2.85 0 0 0 1.013-1.129c.246-.48.37-1.025.37-1.635 0-.61-.124-1.155-.37-1.635a2.85 2.85 0 0 0-1.013-1.13 2.466 2.466 0 0 0-1.382-.408 2.56 2.56 0 0 0-1.401.409 2.904 2.904 0 0 0-.993 1.129c-.246.48-.37 1.025-.37 1.635 0 .61.123 1.155.37 1.635s.578.856.993 1.129a2.56 2.56 0 0 0 1.401.409ZM55.564 34.099l2.628-7.26h2.18l-3.815 9.849h-2.064l-3.815-9.85h2.258l2.628 7.26ZM104.699 16.927h-2.141V3.302h2.141v13.625ZM96.53 6.844c1.194 0 2.148.37 2.862 1.11.714.726 1.07 1.693 1.07 2.9v6.073h-1.596l-.39-1.11h-.096c-.273.351-.65.663-1.13.935-.467.273-1.05.409-1.751.409-.623 0-1.188-.13-1.694-.39a3.17 3.17 0 0 1-1.187-1.07 2.728 2.728 0 0 1-.428-1.48c0-.648.188-1.213.564-1.693.39-.493.928-.87 1.616-1.129.7-.26 1.498-.39 2.394-.39h1.577v-.33c0-.584-.17-1.045-.506-1.382-.325-.35-.766-.526-1.324-.526-.493 0-.889.13-1.188.39a1.5 1.5 0 0 0-.544.915h-2.142a3.745 3.745 0 0 1 .565-1.597 3.521 3.521 0 0 1 1.343-1.187c.57-.299 1.233-.448 1.985-.448Zm-.584 8.507c.714 0 1.292-.215 1.733-.643.441-.428.662-.94.662-1.537v-.623h-1.558c-.817 0-1.433.136-1.849.408-.402.26-.603.623-.603 1.09 0 .39.136.708.409.954.285.234.687.35 1.206.35ZM81.74 20.431V7.078h1.596l.39 1.09h.097c.22-.286.59-.578 1.11-.876.531-.299 1.141-.448 1.829-.448.804 0 1.55.227 2.238.682.701.44 1.26 1.057 1.674 1.849.416.778.623 1.654.623 2.628 0 .973-.207 1.855-.623 2.647A4.91 4.91 0 0 1 89 16.5a4.066 4.066 0 0 1-2.238.66c-.454 0-.883-.077-1.285-.233a3.79 3.79 0 0 1-.973-.506c-.26-.207-.435-.383-.526-.525h-.097v4.535H81.74Zm4.788-5.256c.48 0 .922-.13 1.324-.389.402-.272.72-.649.954-1.129.246-.493.37-1.044.37-1.654 0-.61-.124-1.155-.37-1.636-.234-.493-.552-.869-.954-1.129a2.31 2.31 0 0 0-1.324-.408c-.48 0-.921.136-1.323.408-.403.26-.727.636-.974 1.13-.233.48-.35 1.025-.35 1.635 0 .61.117 1.161.35 1.654.247.48.571.857.974 1.13.402.259.843.388 1.323.388ZM74.787 17.16c-.766 0-1.447-.174-2.044-.525a3.773 3.773 0 0 1-1.402-1.518c-.337-.649-.506-1.402-.506-2.258V7.078h2.142v5.625c0 .727.207 1.324.622 1.791.429.454.967.681 1.616.681.675 0 1.226-.227 1.654-.68.429-.468.643-1.065.643-1.792V7.078h2.122v9.85h-1.597l-.389-1.11h-.097c-.22.311-.578.616-1.07.915-.494.285-1.058.428-1.694.428ZM64.536 16.927v-9.85h1.596l.39 1.09h.096c.208-.298.526-.59.954-.875a2.523 2.523 0 0 1 1.48-.448c.324 0 .597.026.817.078v2.141a4.303 4.303 0 0 0-.876-.078c-.688 0-1.246.221-1.674.662-.428.441-.642 1.051-.642 1.83v5.45h-2.141ZM52.119 16.927V3.302h4.126c1.233 0 2.362.304 3.387.914a6.587 6.587 0 0 1 2.434 2.453c.596 1.038.895 2.187.895 3.445a6.78 6.78 0 0 1-.915 3.465 6.587 6.587 0 0 1-2.433 2.453 6.573 6.573 0 0 1-3.368.895H52.12Zm4.126-2.16c.792 0 1.525-.201 2.2-.604a4.596 4.596 0 0 0 1.635-1.674 4.635 4.635 0 0 0 .623-2.375c0-.869-.208-1.654-.623-2.355a4.406 4.406 0 0 0-1.635-1.674 4.12 4.12 0 0 0-2.2-.623h-1.868v9.305h1.868Z"/>
    <defs>
        <clipPath id="a">
            <path fill="#fff" d="M.956.973h39.58V62.67H.957z"/>
        </clipPath>
    </defs>
</svg>
